<svg xmlns="http://www.w3.org/2000/svg" viewBox="0 0 331.18 151.65"><defs><style>.cls-1{fill:#2ba1b3;}</style></defs><title>资源 1</title><g id="图层_2" data-name="图层 2"><g id="LOGO"><path id="ICO" class="cls-1" d="M27.34,15.7C27,7.23,35.13.4,43.21.14,49.76-.13,56.32.08,62.88,0c19.66-.5,35.45,20.73,31.25,39.54C92.7,48,87.37,55.46,80.63,60.63c-4.89,3.7-10.94,5.16-16.49,7.55C74.29,69,84.87,66,92,58.41c13-12,13.87-33.94,2.56-47.3C91,7.29,86.75,4.31,83.25.5,94-.44,104.73.34,115.47,0c5.7.14,12.38-.9,16.91,3.39,4.56,3.66,6.48,9.57,6.24,15.27q-.14,57.23,0,114.48c0,4.9-1.29,10.1-4.92,13.6-4.26,4.45-10.89,4.8-16.67,4.87-23.09-.14-46.17-.06-69.25,0-5.34-.15-11.48-.44-15.41-4.57-3.72-3.58-5.07-8.88-4.9-13.9,0-17.08.11-34.17,0-51.25-7,8-13.57,17.71-24.37,20.78A19.26,19.26,0,0,1,0,93.2C15.71,84,22.85,66,26.1,48.86,28.21,37.92,27,26.74,27.34,15.7Z"/><path class="cls-1" d="M171.79,62.81a463,463,0,0,1-15.19,44.72c-.57.84-1.13,1.12-1.69.84a1.9,1.9,0,0,1-.42-2.11,353.53,353.53,0,0,0,14.77-42.19q-4.65,3-6.75,4.64l-8.44,5.06a1.37,1.37,0,0,1-1.69-.42c-.28-.28-.14-.7.42-1.27q20.25-12.23,17.3-10.55ZM173.06,54a118.59,118.59,0,0,0-16.45-18.14,1.37,1.37,0,0,1-.42-1.69,1.38,1.38,0,0,1,1.69-.42,157.92,157.92,0,0,1,16.45,18.14,1.06,1.06,0,0,1,0,1.69C174,54.37,173.62,54.52,173.06,54ZM160,3.33a126.46,126.46,0,0,1,16.88,18.56,1.06,1.06,0,0,1,0,1.69c-.57.84-1,1-1.27.42a131.4,131.4,0,0,0-17.3-19,1.37,1.37,0,0,1-.42-1.69Q158.71,2.49,160,3.33ZM208.5,24.42H183.61a1.12,1.12,0,0,0-1.27,1.27A1.12,1.12,0,0,0,183.61,27H208.5V53.53H179c-.57,0-.84.42-.84,1.27s.28,1.27.84,1.27h26.58q-13.08,35.86-21.09,43.87H184a1.65,1.65,0,0,0-1.27,1.69c.28.84,1,1.12,2.11.84q26.58-3.38,48.52-8,3.37,9.27,4.64,12.66c.56.84,1.12,1.12,1.69.84s.7-.84.42-1.69a274.51,274.51,0,0,0-16-37.13.84.84,0,0,0-1.27-.42c-.84.28-1.13.57-.84.84q5.06,9.71,10.13,22.36a276.81,276.81,0,0,1-44.72,8q8.43-10.12,20.25-43.87h32.48c.56,0,.84-.42.84-1.27s-.28-1.27-.84-1.27H210.61V27h26.58c1.4,0,2.11-.42,2.11-1.27s-.71-1.27-2.11-1.27H210.61V3.75c0-.28-.28-.42-.84-.42-.84,0-1.27.14-1.27.42Z"/><path class="cls-1" d="M291.1,26.53a67.3,67.3,0,0,0,12.66-12.66H270a101.4,101.4,0,0,1-24.47,17.72l-1.69-1.69q21.93-11.39,33.33-27.42l2.11.42q-3,4.22-6.75,8.86h34.17v1.69a95.68,95.68,0,0,1-13.08,13.08h26.58q3.37,0,3.38,3.8V45.51c0,2.25-1.13,3.38-3.37,3.38H282.66l-1.27,1.27a54.73,54.73,0,0,1,15.19,21.09q16-6.33,26.16-16L324,56.9a64.22,64.22,0,0,1-16.87,11.81q6.74,18.14,24,32.06l-1.27,1.69Q312.19,87.7,305.44,69.56q-3.38,1.69-8,3.8A42.88,42.88,0,0,1,300,87.7q0,11-3.37,15.61-3.38,3.37-11.81,4.64H278l-.42-2.53h7.17a13.14,13.14,0,0,0,9.7-3.8q3.37-3.38,3.38-13.92a45.16,45.16,0,0,0-1.27-11q-17.72,16.88-48.52,27l-1.27-2.11q32.48-10.54,48.94-27.42a50.31,50.31,0,0,0-5.48-11q-14.77,13.92-41.34,22.36l-.84-2.53Q274.65,74.63,289,61.55a63.81,63.81,0,0,0-8.86-10.12q-11.39,11.82-31.22,16l-.84-2.11q20.67-4.64,31.64-16.45H258.62c-2.25,0-3.37-1.12-3.37-3.37V30.33q0-3.8,3.38-3.8Zm-9.28,20.25a46.07,46.07,0,0,0,8-17.72H260.73q-3.38,0-3.37,3.8V43q0,3.8,3.38,3.8Zm39.66-13.92q0-3.8-3.37-3.8H291.94a56.25,56.25,0,0,1-7.59,17.72H318.1q3.37,0,3.38-3.8Z"/><path class="cls-1" d="M163.62,116.3v31.88h18.75l.94,1.13h-21v-33Z"/><path class="cls-1" d="M205.92,115.74,219.6,149.3h-1.69l-5.25-13.5H196l-5.25,13.5H189l13.69-33.56Zm6.38,18.94-6.37-16.31h-3l-6.56,16.31Z"/><path class="cls-1" d="M263.78,116.3l-9.56,33H252L243.53,121H242.4l-.37.38-8.25,27.94h-2.25l-9.56-33h1.69l8.25,30.56h1.31l.19-.56,8.25-27.94h2.44l8.44,28.5h1.13l.38-.56,8.06-30Z"/><path class="cls-1" d="M283.39,115.74l13.69,33.56h-1.69l-5.25-13.5H273.45l-5.25,13.5h-1.69l13.69-33.56Zm6.38,18.94-6.37-16.31h-3l-6.56,16.31Z"/><path class="cls-1" d="M304.69,146.86a11.05,11.05,0,0,1-3.75-7.69h1.31a10.87,10.87,0,0,0,3.38,6.75,12,12,0,0,0,7.69,2.25,13,13,0,0,0,7.31-1.87,5.82,5.82,0,0,0,3.19-5.25,6.52,6.52,0,0,0-3.75-6,40,40,0,0,0-7.5-2.62,44.81,44.81,0,0,1-7.5-2.62,5.91,5.91,0,0,1-3.37-5.44,6.71,6.71,0,0,1,3.19-6,13.64,13.64,0,0,1,7.88-2.06q5.25,0,8.06,2.44a9.46,9.46,0,0,1,3.38,5.81l-1.87-1.12a8.49,8.49,0,0,0-2.44-3.94,11.24,11.24,0,0,0-7.12-2.06,12.87,12.87,0,0,0-6.75,1.5,5.61,5.61,0,0,0-3,5.25q0,3.19,3.56,5.06a33.52,33.52,0,0,0,6.38,2.25,51.52,51.52,0,0,1,8.44,3,7.06,7.06,0,0,1,3.75,6.38,7.17,7.17,0,0,1-3.19,6.19q-3.19,2.25-8.62,2.25T304.69,146.86Z"/></g></g></svg>